<?xml version="1.0" encoding="UTF-8" standalone="no"?>
<svg
   version="1.1"
   style="display:block"
   viewBox="0 0 954.48358 266.82892"
   width="477.24179"
   height="133.41446"
   preserveAspectRatio="none"
   id="svg19"
   xmlns:xlink="http://www.w3.org/1999/xlink"
   xmlns="http://www.w3.org/2000/svg"
   xmlns:svg="http://www.w3.org/2000/svg">
  <defs
     id="defs2">
    <linearGradient
       id="Gradient1"
       gradientUnits="userSpaceOnUse"
       x1="1067.34"
       y1="1111.92"
       x2="971.29102"
       y2="509.15701"
       gradientTransform="translate(5.4063605e-4,3.2126657e-4)">
      <stop
         class="stop0"
         offset="0"
         stop-opacity="1"
         stop-color="rgb(182,135,38)"
         id="stop1" />
      <stop
         class="stop1"
         offset="1"
         stop-opacity="1"
         stop-color="rgb(230,191,90)"
         id="stop2" />
    </linearGradient>
    <linearGradient
       xlink:href="#Gradient1"
       id="linearGradient2"
       gradientUnits="userSpaceOnUse"
       gradientTransform="translate(5.4063605e-4,3.2126657e-4)"
       x1="1067.34"
       y1="1111.92"
       x2="971.29102"
       y2="509.15701" />
    <linearGradient
       xlink:href="#Gradient1"
       id="linearGradient3"
       gradientUnits="userSpaceOnUse"
       gradientTransform="translate(5.4063605e-4,3.2126657e-4)"
       x1="1067.34"
       y1="1111.92"
       x2="971.29102"
       y2="509.15701" />
  </defs>
  <g
     id="g24"
     style="display:none"
     transform="translate(-748.4411,-903.10821)">
    <path
       fill="url(#Gradient1)"
       d="m 1318.2995,395.697 c 46.1899,7.45499 44.8299,35.76197 34.0999,72.82494 -6.34,23.36198 -11.78,42.90097 -15.2299,67.02595 -1.52,37.63496 4.1999,70.92394 30.1599,99.26391 30.42,33.21498 19.4,60.93896 0.83,98.73292 -47.2199,96.08293 -122.0299,177.03086 -198.9298,250.3348 -97.5599,91.79988 -225.42783,170.86988 -363.87671,165.05988 -25.54898,-1.07 -92.51493,-10.52 -108.83592,-30.39 -25.61598,-34.15 -34.01497,-90.6099 -31.74697,-131.58888 5.81099,-104.96992 59.69895,-202.64784 123.9499,-283.28877 12.79899,-16.06399 36.30297,-45.92496 52.32496,-59.11195 8.53499,-11.21999 34.00497,-35.36997 44.62796,-45.57297 71.2973,-67.97163 196.85838,-146.33744 271.31718,-182.07475 21.0926,-11.2143 132.6895,-25.83408 161.3095,-21.21508 z"
       id="path2"
       style="fill:url(#linearGradient2)" />
    <path
       fill="#dbb156"
       d="m 1155.98,352.133 c 17.11,-0.106 40.95,-0.946 57.52,0.305 0.03,16.682 -0.98,41.802 0.37,57.539 l 0.2,10.574 c 0,7.914 -0.26,17.522 0.09,25.295 l 0.12,21.703 c 6.15,-0.753 11.54,-0.695 17.72,-0.743 l 1.81,-0.281 c 1.71,-4.684 0.94,-32.797 0.88,-40.013 l -0.48,-31.49 c 28.73,-3.825 55.47,-3.944 84.09,0.675 46.19,7.455 44.83,35.762 34.1,72.825 -6.34,23.362 -11.78,42.901 -15.23,67.026 -2,-11.934 0.46,-26.91 3.93,-38.465 2.26,-7.537 4.71,-8.404 3.24,-15.974 3.12,-4.655 3.94,-7.053 4.87,-12.596 l 0.83,-4.12 c -3.51,-1.176 -1.13,3.987 -4.78,-2.165 l -1.3,2.295 -0.77,-0.343 1.62,-6.839 c -4.94,0.726 -5.91,3.862 -11.05,3.671 -2.45,-2.713 -1.85,-4.244 -2.23,-8.639 l -1.2,-0.057 c -3.21,6.891 -6.53,13.997 -9.58,20.947 -20.49,46.662 -28.67,115.13 -11.62,163.644 l -142.16,0.104 c -12.96,-0.002 -52.64,-1.104 -63.33,0.498 -5.93,0.897 -11.4,3.707 -15.58,8.002 -13.12,13.279 -7.01,33.218 -8.76,50.085 -3.18,-11.448 0.62,-10.156 -9.79,-20.465 -1.87,-1.853 3.84,-5.741 0.84,-10.854 -9.36,-15.931 -8.74,-25.435 -29.36,-13.556 -2.4,1.378 -1.08,5.575 -1.98,8.783 l -1.75,-4.431 c -3.53,-1.832 -27.02,2.66 -31.97,5.505 -5.12,2.938 -16.546,11.284 -21.02,11.224 28.8,-33.134 79.06,-80.628 111.13,-110.222 -22.15,10.141 -62.48,40.107 -81.88,54.833 -3.09,-1.599 -7,-8.015 -9.41,-8.041 -12.643,-0.994 -30.252,1.315 -42.363,-0.705 -16.457,-2.746 -31.924,-12.263 -49.436,-11.07 -13.156,0.896 -21.595,16.296 -31.342,13.925 -4.49,2.504 -1.17,5.013 -5.35,8.911 -1.822,-1.647 -1.026,-0.726 -2.39,-2.763 -5.456,4.218 -27.021,26.078 -32.184,27.89 8.535,-11.22 34.005,-35.37 44.628,-45.573 C 940.051,546.761 1007.58,487.92 1074.9,453.609 l 0.23,15.263 c 7.35,-0.005 14.69,-0.109 22.03,-0.313 0.03,-19.299 -0.53,-39.145 -0.79,-58.5 18.85,0.342 40.89,-0.589 59.36,0.551 l 0.2,-0.672 c 0.22,-19.268 0.24,-38.537 0.05,-57.805 z"
       id="path3"
       style="display:none" />
    <path
       fill="#fefefd"
       d="m 1155.98,352.133 c 17.11,-0.106 40.95,-0.946 57.52,0.305 0.03,16.682 -0.98,41.802 0.37,57.539 l 0.2,10.574 c 0,7.914 -0.26,17.522 0.09,25.295 l 0.12,21.703 c 13.67,1.41 42.41,1.132 56.9,1.363 l 0.37,57.625 -58.19,0.373 c 0.06,-19.156 -0.51,-39.94 -0.11,-58.902 -19.18,0.05 -38.35,0.283 -57.52,0.702 -0.7,20.101 -0.03,38.433 -0.11,58.264 -17.69,-0.931 -40.34,-0.192 -58.38,-0.097 l -0.08,-58.318 c 0.03,-19.299 -0.53,-39.145 -0.79,-58.5 18.85,0.342 40.89,-0.589 59.36,0.551 l 0.2,-0.672 c 0.22,-19.268 0.24,-38.537 0.05,-57.805 z"
       id="path4"
       style="display:none" />
    <path
       fill="#dbb156"
       d="m 1096.37,410.059 c 18.85,0.342 40.89,-0.589 59.36,0.551 0.06,19.332 -0.07,38.665 -0.36,57.995 -18.1,0.097 -40.74,-0.607 -58.21,-0.046 0.03,-19.299 -0.53,-39.145 -0.79,-58.5 z"
       id="path5"
       style="display:none" />
    <path
       fill="#dbb156"
       d="m 1155.98,352.133 c 17.11,-0.106 40.95,-0.946 57.52,0.305 0.03,16.682 -0.98,41.802 0.37,57.539 -18.65,0.826 -39.3,0.385 -57.94,-0.039 0.22,-19.268 0.24,-38.537 0.05,-57.805 z"
       id="path6"
       style="display:none" />
    <path
       fill="#fefefd"
       d="m 1155.62,526.974 c 18.86,0.914 38.52,0.447 57.48,0.348 l -0.01,57.968 c -18.91,-0.017 -38.5,-0.296 -57.35,0.12 -0.21,-19.478 -0.25,-38.958 -0.12,-58.436 z"
       id="path7"
       style="display:none" />
    <path
       fill="#fefefd"
       d="m 1013.5197,616.41282 c 19.4,-14.72599 59.73,-44.69196 81.8799,-54.83296 -32.0699,29.59398 -82.3299,77.08794 -111.12986,110.22191 -82.94493,83.78094 -167.01786,192.96385 -225.12282,295.35376 -16.50898,29.09198 -28.18797,57.60397 -43.49496,86.05397 42.73096,-173.61689 161.33787,-325.22577 297.86774,-436.79668 z"
       id="path12" />
    <path
       fill="#dbb156"
       d="m 1112.91,723.068 143.24,-0.35 c -1.03,4.503 -15.09,24.006 -17.97,25.83 0.9,-5.339 1.96,-2.891 -1.23,-5.261 0.52,0.387 -4.83,-9.827 -5.13,-10.362 -3.34,-0.475 -8.79,-2.933 -10.66,-5.838 2.2,-2.201 5.36,-2.109 8.95,-2.774 -24.72,-1.845 -56.13,0.597 -81.43,-0.16 -9.89,-0.296 -27.11,1.369 -35.77,-1.085 z"
       id="path13"
       style="display:none" />
    <path
       fill="#b78526"
       d="m 793.2449,1240.5093 c 30.62897,0.03 64.05294,-2.58 92.65992,9.59 30.36698,12.92 42.21197,43.91 33.07797,74.5199 -4.89899,16.42 -13.99599,24.38 -28.52897,32.06 4.23399,2.28 8.48899,4.19 12.65899,6.75 39.94396,24.48 43.30596,85.4499 0.574,109.2899 -11.409,6.36 -21.51899,8.87 -34.44498,11.3 -15.10198,2.69 -46.80496,1.93 -63.01095,1.89 -35.07797,-0.3 -70.15794,-0.36 -105.23691,-0.16 -0.783,-40.3 -0.155,-82.6399 -0.181,-123.0899 -0.425,-40.64 -0.52,-81.2699 -0.283,-121.9099 30.26998,-0.62 62.18095,-0.05 92.71493,-0.24 z m -44.18097,207.4098 59.79995,0.21 c 19.38099,0.05 49.35496,2.01 65.81195,-9.1799 6.95299,-7.02 10.83399,-12.43 10.59699,-22.85 -0.955,-41.94 -48.16596,-37.37 -76.36894,-37.35 l -59.94795,0.09 c 0.018,22.59 -0.372,46.61 0.108,69.0799 z m -0.047,-105.7199 c 28.61298,-0.2 93.40493,4.95 114.78791,-10.38 5.62699,-5.5 8.58699,-9.96 9.29899,-17.8999 3.331,-37.16 -40.34997,-36.1 -65.50395,-35.94 -19.95298,0.13 -39.16596,0.03 -58.68995,0.07 z"
       id="path14" />
    <path
       fill="#b78526"
       d="m 1092.9797,1240.6893 c 48.2199,-0.02 97.2099,-0.35 145.3898,0.24 -1.08,39.09 0.15,79.3699 -0.32,118.5299 0.03,19.32 0.52,38.08 -0.95,57.37 -5.51,72.3299 -82.0099,88.4299 -139.8399,61.3899 l -1.47,-0.8 c -7.5699,-4.17 -26.3099,-16.72 -28.6699,-24.99 2.02,-6.73 21.91,-28.4799 27.6599,-33.5299 1.92,2.11 3.86,4.2 5.82,6.27 13.12,13.81 25.65,22.8399 45.86,23.2899 18.55,1.02 37.25,-10.0199 40.92,-29.1899 3.34,-17.48 2.55,-38.04 2.58,-55.95 l -0.13,-81.9899 -96.7399,0.08 c 0.11,-13.57 0.08,-27.15 -0.11,-40.72 z"
       id="path15" />
    <path
       fill="#b78526"
       d="m 1301.7595,1240.7793 c 15.85,0.43 33,0.08 48.9499,0.05 -1.53,17.72 -0.33,49.72 -0.32,68.94 l -0.48,121.9099 c 0,14.9099 1,40.3299 -0.17,54.1899 -16.0599,0.19 -32.4099,0.01 -48.4999,-0.01 0.43,-8.42 0.26,-17.4 0.23,-25.88 -0.24,-72.7699 1.23,-146.5298 0.29,-219.1998 z"
       id="path16" />
    <path
       fill="#b78526"
       d="m 982.13374,1240.6893 c 14.39399,0.81 33.89596,0.26 48.66596,0.27 l -0.46,155.5199 c -0.08,25.33 -1.32,64.8899 0.6,88.8499 -8.27,1.06 -39.02497,0.37 -48.93796,0.32 z"
       id="path17" />
    <path
       fill="#b78526"
       d="m 926.53379,1544.3691 28.75097,-0.27 -0.32,55.7399 c -0.15,30.45 -3.37299,69.51 39.06097,69.68 41.72397,0.18 37.08397,-42.07 36.95397,-70.35 -0.12,-18.14 -0.14,-36.29 -0.06,-54.4299 9.52,0.02 19.03,0.11 28.55,0.27 0.6,9.6 0.24,22.3999 0.25,32.2399 0.17,30.4 5.54,76.62 -16.95,100.06 -23.54,24.5199 -74.91195,24.3299 -98.80293,0.1 -6.80299,-6.98 -11.69799,-15.6 -14.21599,-25.02 -5.21099,-19 -3.30099,-84.47 -3.21699,-108.0199 z"
       id="path18" />
    <path
       fill="#b78526"
       d="m 1096.5596,1544.7191 c 9.04,-0.27 19.03,0.06 28.14,0.16 -0.79,47.8399 2.14,100.9099 -0.02,148.0698 l -28.02,0.17 c -0.71,-48.9699 -0.12,-99.3199 -0.1,-148.3998 z"
       id="path19" />
  </g>
  <g
     id="g76"
     clip-path="none"
     style="display:none"
     transform="translate(-748.4411,-903.10821)">
    <path
       id="path63"
       style="display:none;fill:url(#linearGradient3)"
       d="m 1146.0508,371.51172 v 50.77344 2.5625 h 53.332 v -19.01172 -34.32422 z m 53.332,53.33594 v 53.33203 h 53.336 v 53.33203 h -53.336 v 53.33594 h -53.332 v -53.33594 h -53.332 v -53.33203 h 53.332 v -53.33203 h -5.0625 -48.2695 v 26.3164 c -69.9691,40.28589 -153.69947,96.96517 -207.04692,147.82422 -10.62299,10.203 -36.09392,34.35032 -44.62891,45.57031 -16.02199,13.18699 -39.52523,43.04929 -52.32422,59.11329 -64.25095,80.64093 -118.13823,178.31914 -123.94922,283.28906 -2.268,40.97896 6.13012,97.43986 31.74609,131.58986 16.321,19.87 83.28696,29.3167 108.83594,30.3867 138.44888,5.81 266.31904,-73.2587 363.87894,-165.05859 76.8999,-73.30394 151.7098,-154.25301 198.9297,-250.33594 18.57,-37.79396 29.5879,-65.51549 -0.8321,-98.73047 -25.96,-28.33997 -31.6801,-61.63067 -30.1601,-99.26562 3.4499,-24.125 8.8904,-43.66146 15.2304,-67.02344 10.73,-37.06297 12.0923,-65.37314 -34.0976,-72.82813 -11.8034,-1.90494 -37.7207,-0.53949 -65.582,2.51172 v 26.64063 z m -53.332,53.33203 v 53.33203 h 53.332 v -53.33203 z" />
    <path
       fill="#dbb156"
       d="m 1155.98,352.133 c 17.11,-0.106 40.95,-0.946 57.52,0.305 0.03,16.682 -0.98,41.802 0.37,57.539 l 0.2,10.574 c 0,7.914 -0.26,17.522 0.09,25.295 l 0.12,21.703 c 6.15,-0.753 11.54,-0.695 17.72,-0.743 l 1.81,-0.281 c 1.71,-4.684 0.94,-32.797 0.88,-40.013 l -0.48,-31.49 c 28.73,-3.825 55.47,-3.944 84.09,0.675 46.19,7.455 44.83,35.762 34.1,72.825 -6.34,23.362 -11.78,42.901 -15.23,67.026 -2,-11.934 0.46,-26.91 3.93,-38.465 2.26,-7.537 4.71,-8.404 3.24,-15.974 3.12,-4.655 3.94,-7.053 4.87,-12.596 l 0.83,-4.12 c -3.51,-1.176 -1.13,3.987 -4.78,-2.165 l -1.3,2.295 -0.77,-0.343 1.62,-6.839 c -4.94,0.726 -5.91,3.862 -11.05,3.671 -2.45,-2.713 -1.85,-4.244 -2.23,-8.639 l -1.2,-0.057 c -3.21,6.891 -6.53,13.997 -9.58,20.947 -20.49,46.662 -28.67,115.13 -11.62,163.644 l -142.16,0.104 c -12.96,-0.002 -52.64,-1.104 -63.33,0.498 -5.93,0.897 -11.4,3.707 -15.58,8.002 -13.12,13.279 -7.01,33.218 -8.76,50.085 -3.18,-11.448 0.62,-10.156 -9.79,-20.465 -1.87,-1.853 3.84,-5.741 0.84,-10.854 -9.36,-15.931 -8.74,-25.435 -29.36,-13.556 -2.4,1.378 -1.08,5.575 -1.98,8.783 l -1.75,-4.431 c -3.53,-1.832 -27.02,2.66 -31.97,5.505 -5.12,2.938 -16.546,11.284 -21.02,11.224 28.8,-33.134 79.06,-80.628 111.13,-110.222 -22.15,10.141 -62.48,40.107 -81.88,54.833 -3.09,-1.599 -7,-8.015 -9.41,-8.041 -12.643,-0.994 -30.252,1.315 -42.363,-0.705 -16.457,-2.746 -31.924,-12.263 -49.436,-11.07 -13.156,0.896 -21.595,16.296 -31.342,13.925 -4.49,2.504 -1.17,5.013 -5.35,8.911 -1.822,-1.647 -1.026,-0.726 -2.39,-2.763 -5.456,4.218 -27.021,26.078 -32.184,27.89 8.535,-11.22 34.005,-35.37 44.628,-45.573 C 940.051,546.761 1007.58,487.92 1074.9,453.609 l 0.23,15.263 c 7.35,-0.005 14.69,-0.109 22.03,-0.313 0.03,-19.299 -0.53,-39.145 -0.79,-58.5 18.85,0.342 40.89,-0.589 59.36,0.551 l 0.2,-0.672 c 0.22,-19.268 0.24,-38.537 0.05,-57.805 z"
       id="path64"
       style="display:none" />
    <path
       fill="#fefefd"
       d="m 1155.98,352.133 c 17.11,-0.106 40.95,-0.946 57.52,0.305 0.03,16.682 -0.98,41.802 0.37,57.539 l 0.2,10.574 c 0,7.914 -0.26,17.522 0.09,25.295 l 0.12,21.703 c 13.67,1.41 42.41,1.132 56.9,1.363 l 0.37,57.625 -58.19,0.373 c 0.06,-19.156 -0.51,-39.94 -0.11,-58.902 -19.18,0.05 -38.35,0.283 -57.52,0.702 -0.7,20.101 -0.03,38.433 -0.11,58.264 -17.69,-0.931 -40.34,-0.192 -58.38,-0.097 l -0.08,-58.318 c 0.03,-19.299 -0.53,-39.145 -0.79,-58.5 18.85,0.342 40.89,-0.589 59.36,0.551 l 0.2,-0.672 c 0.22,-19.268 0.24,-38.537 0.05,-57.805 z"
       id="path65"
       style="display:none" />
    <path
       fill="#dbb156"
       d="m 1096.37,410.059 c 18.85,0.342 40.89,-0.589 59.36,0.551 0.06,19.332 -0.07,38.665 -0.36,57.995 -18.1,0.097 -40.74,-0.607 -58.21,-0.046 0.03,-19.299 -0.53,-39.145 -0.79,-58.5 z"
       id="path66"
       style="display:none" />
    <path
       fill="#dbb156"
       d="m 1155.98,352.133 c 17.11,-0.106 40.95,-0.946 57.52,0.305 0.03,16.682 -0.98,41.802 0.37,57.539 -18.65,0.826 -39.3,0.385 -57.94,-0.039 0.22,-19.268 0.24,-38.537 0.05,-57.805 z"
       id="path67"
       style="display:none" />
    <path
       fill="#fefefd"
       d="m 1155.62,526.974 c 18.86,0.914 38.52,0.447 57.48,0.348 l -0.01,57.968 c -18.91,-0.017 -38.5,-0.296 -57.35,0.12 -0.21,-19.478 -0.25,-38.958 -0.12,-58.436 z"
       id="path68"
       style="display:none" />
    <path
       fill="#fefefd"
       d="m 1013.5197,616.41282 c 19.4,-14.72599 59.73,-44.69196 81.8799,-54.83296 -32.0699,29.59398 -82.3299,77.08794 -111.12986,110.22191 -82.94493,83.78094 -167.01786,192.96385 -225.12282,295.35376 -16.50898,29.09198 -28.18797,57.60397 -43.49496,86.05397 42.73096,-173.61689 161.33787,-325.22577 297.86774,-436.79668 z"
       id="path69"
       style="display:inline" />
    <path
       fill="#dbb156"
       d="m 1112.91,723.068 143.24,-0.35 c -1.03,4.503 -15.09,24.006 -17.97,25.83 0.9,-5.339 1.96,-2.891 -1.23,-5.261 0.52,0.387 -4.83,-9.827 -5.13,-10.362 -3.34,-0.475 -8.79,-2.933 -10.66,-5.838 2.2,-2.201 5.36,-2.109 8.95,-2.774 -24.72,-1.845 -56.13,0.597 -81.43,-0.16 -9.89,-0.296 -27.11,1.369 -35.77,-1.085 z"
       id="path70"
       style="display:none" />
  </g>
  <rect
     style="display:none;fill:#000000;stroke:#b78526;stroke-width:0;stroke-linecap:round;stroke-linejoin:round;stroke-dasharray:none;stroke-opacity:1;paint-order:stroke markers fill"
     id="rect148"
     width="2056.0569"
     height="2049.981"
     x="-752.96985"
     y="-907.78021" />
  <g
     id="g148"
     style="display:inline;stroke-width:24.9017;stroke-dasharray:none"
     transform="matrix(0.75626203,0,0,0.85296508,-378.41971,-1031.2817)">
    <g
       id="g147"
       transform="matrix(0.82612993,0,0,0.82612993,283.92924,244.83605)"
       style="stroke-width:30.1425;stroke-dasharray:none">
      <path
         fill="#b78526"
         d="m 1509.7464,1280.9828 28.7509,-0.27 -0.32,55.7399 c -0.15,30.45 -3.373,69.51 39.061,69.68 41.724,0.18 37.084,-42.07 36.954,-70.35 -0.12,-18.14 -0.14,-36.29 -0.06,-54.4299 9.52,0.02 19.03,0.11 28.55,0.27 0.6,9.6 0.24,22.3999 0.25,32.2399 0.17,30.4 5.54,76.62 -16.95,100.06 -23.54,24.5199 -74.912,24.3299 -98.803,0.1 -6.803,-6.98 -11.698,-15.6 -14.216,-25.02 -5.2109,-19 -3.3009,-84.47 -3.2169,-108.0199 z"
         id="path75"
         style="display:inline;stroke-width:30.1425;stroke-dasharray:none" />
      <path
         fill="#b78526"
         d="m 1679.7722,1281.3328 c 9.04,-0.27 19.03,0.06 28.14,0.16 -0.79,47.8399 2.14,100.9099 -0.02,148.0698 l -28.02,0.17 c -0.71,-48.9699 -0.12,-99.3199 -0.1,-148.3998 z"
         id="path76"
         style="display:inline;stroke-width:30.1425;stroke-dasharray:none" />
    </g>
    <rect
       style="display:inline;fill:none;stroke:#b78526;stroke-width:24.9017;stroke-linecap:round;stroke-linejoin:round;stroke-dasharray:none;stroke-opacity:1;paint-order:stroke markers fill"
       id="rect147"
       width="273.69873"
       height="216.29858"
       x="1476.3392"
       y="1257.3182" />
  </g>
  <g
     id="g146"
     style="display:inline;stroke-width:19.9213;stroke-dasharray:none"
     transform="matrix(0.94532766,0,0,1.0662065,-662.1103,-1322.4093)">
    <path
       fill="#b78526"
       d="m 793.2449,1240.5093 c 30.62897,0.03 64.05294,-2.58 92.65992,9.59 30.36698,12.92 42.21197,43.91 33.07797,74.5199 -4.89899,16.42 -13.99599,24.38 -28.52897,32.06 4.23399,2.28 8.48899,4.19 12.65899,6.75 39.94396,24.48 43.30596,85.4499 0.574,109.2899 -11.409,6.36 -21.51899,8.87 -34.44498,11.3 -15.10198,2.69 -46.80496,1.93 -63.01095,1.89 -35.07797,-0.3 -70.15794,-0.36 -105.23691,-0.16 -0.783,-40.3 -0.155,-82.6399 -0.181,-123.0899 -0.425,-40.64 -0.52,-81.2699 -0.283,-121.9099 30.26998,-0.62 62.18095,-0.05 92.71493,-0.24 z m -44.18097,207.4098 59.79995,0.21 c 19.38099,0.05 49.35496,2.01 65.81195,-9.1799 6.95299,-7.02 10.83399,-12.43 10.59699,-22.85 -0.955,-41.94 -48.16596,-37.37 -76.36894,-37.35 l -59.94795,0.09 c 0.018,22.59 -0.372,46.61 0.108,69.0799 z m -0.047,-105.7199 c 28.61298,-0.2 93.40493,4.95 114.78791,-10.38 5.62699,-5.5 8.58699,-9.96 9.29899,-17.8999 3.331,-37.16 -40.34997,-36.1 -65.50395,-35.94 -19.95298,0.13 -39.16596,0.03 -58.68995,0.07 z"
       id="path71"
       style="display:inline;stroke-width:19.9213;stroke-dasharray:none" />
    <path
       fill="#b78526"
       d="m 982.13374,1240.6893 c 14.39399,0.81 33.89596,0.26 48.66596,0.27 l -0.46,155.5199 c -0.08,25.33 -1.32,64.8899 0.6,88.8499 -8.27,1.06 -39.02497,0.37 -48.93796,0.32 z"
       id="path74"
       style="display:inline;stroke-width:19.9213;stroke-dasharray:none" />
    <path
       fill="#b78526"
       d="m 1092.9797,1240.6893 c 48.2199,-0.02 97.2099,-0.35 145.3898,0.24 -1.08,39.09 0.15,79.3699 -0.32,118.5299 0.03,19.32 0.52,38.08 -0.95,57.37 -5.51,72.3299 -82.0099,88.4299 -139.8399,61.3899 l -1.47,-0.8 c -7.5699,-4.17 -26.3099,-16.72 -28.6699,-24.99 2.02,-6.73 21.91,-28.4799 27.6599,-33.5299 1.92,2.11 3.86,4.2 5.82,6.27 13.12,13.81 25.65,22.8399 45.86,23.2899 18.55,1.02 37.25,-10.0199 40.92,-29.1899 3.34,-17.48 2.55,-38.04 2.58,-55.95 l -0.13,-81.9899 -96.7399,0.08 c 0.11,-13.57 0.08,-27.15 -0.11,-40.72 z"
       id="path72"
       style="display:inline;stroke-width:19.9213;stroke-dasharray:none" />
    <path
       fill="#b78526"
       d="m 1301.7595,1240.7793 c 15.85,0.43 33,0.08 48.9499,0.05 -1.53,17.72 -0.33,49.72 -0.32,68.94 l -0.48,121.9099 c 0,14.9099 1,40.3299 -0.17,54.1899 -16.0599,0.19 -32.4099,0.01 -48.4999,-0.01 0.43,-8.42 0.26,-17.4 0.23,-25.88 -0.24,-72.7699 1.23,-146.5298 0.29,-219.1998 z"
       id="path73"
       style="display:inline;stroke-width:19.9213;stroke-dasharray:none" />
  </g>
</svg>
